<svg xmlns="http://www.w3.org/2000/svg" viewBox="0 0 560 220" role="img" aria-labelledby="title" aria-describedby="description"><title id="title">Positive particle in a uniform field between oppositely charged plates</title><desc id="description">Parallel positive and negative plates separated by 0.015 m with a positive test particle between them.</desc><g fill="none" stroke="#182b47" stroke-width="2.5"><path d="M150 25v135m260-135v135"/><circle cx="280" cy="102" r="17"/><path d="M212 52h130m-10-7 10 7-10 7M212 102h35m-10-7 10 7-10 7m75 0h20m-10-7 10 7-10 7M212 152h130m-10-7 10 7-10 7"/><path d="M150 177v15m260-15v15M150 184h260"/></g><g fill="#182b47" font-family="Arial,sans-serif" font-size="17"><text x="115" y="21">+</text><text x="403" y="21">−</text><text x="274" y="108">+</text><text x="218" y="213">d = 0.015 m</text><text x="210" y="34">450 V</text></g></svg>
