<svg xmlns="http://www.w3.org/2000/svg" viewBox="0 0 590 245"><title>Successive standing-wave nodes</title><desc>Nodes A, B and C are separated by equal distances of 0.18 metres. Solid and dashed outlines show the two extreme positions.</desc><g fill="none" stroke="black" stroke-width="2"><path d="M45 106 H535" stroke-width="1"/><path d="M70 106 C120 38 185 38 235 106 C285 174 350 174 400 106"/><path d="M70 106 C120 174 185 174 235 106 C285 38 350 38 400 106" stroke-dasharray="7 5"/><path d="M70 176 V199 M235 176 V199 M400 176 V199 M70 187 H235 M235 187 H400"/></g><g fill="black"><circle cx="70" cy="106" r="4"/><circle cx="235" cy="106" r="4"/><circle cx="400" cy="106" r="4"/></g><g font-family="Arial,sans-serif" font-size="20" text-anchor="middle"><text x="70" y="152">A</text><text x="235" y="152">B</text><text x="400" y="152">C</text><text x="152" y="224">0.18 m</text><text x="317" y="224">0.18 m</text></g></svg>
